<!DOCTYPE svg PUBLIC "-//W3C//DTD SVG 1.1//EN" "http://www.w3.org/Graphics/SVG/1.1/DTD/svg11.dtd">
<!-- Uploaded to: SVG Repo, www.svgrepo.com, Transformed by: SVG Repo Mixer Tools -->
<svg version="1.1" id="Layer_1" xmlns="http://www.w3.org/2000/svg" xmlns:xlink="http://www.w3.org/1999/xlink" viewBox="0 0 512 512" xml:space="preserve" width="64px" height="64px" fill="#000000" transform="matrix(1, 0, 0, 1, 0, 0)rotate(0)">
<g id="SVGRepo_bgCarrier" stroke-width="0"/>
<g id="SVGRepo_tracerCarrier" stroke-linecap="round" stroke-linejoin="round"/>
<g id="SVGRepo_iconCarrier"> <g> <circle style="fill:#dedede;" cx="168.178" cy="396.675" r="46.099"/> <rect x="280.06" y="162.548" style="fill:#dedede;" width="110.105" height="226.962"/> <rect x="94.78" y="162.548" style="fill:#dedede;" width="119.502" height="81.9"/> </g> <g> <path style="fill:#b44195;" d="M214.275,258.668H94.777c-7.852,0-14.216-6.365-14.216-14.216v-81.904 c0-7.852,6.365-14.216,14.216-14.216h119.499c7.852,0,14.216,6.365,14.216,14.216v81.902 C228.492,252.304,222.127,258.668,214.275,258.668z M108.993,230.236h91.066v-53.471h-91.066V230.236z"/> <path style="fill:#b44195;" d="M497.784,375.293h-29.439V69.233c0-7.852-6.365-14.216-14.216-14.216H183.709 c-40.387,0-80.238,13.586-112.216,38.256C26.726,127.81,0,182.184,0,238.724v61.923c0,7.852,6.365,14.216,14.216,14.216h164.477 c7.852,0,14.216-6.365,14.216-14.216c0-7.852-6.365-14.216-14.216-14.216H28.432v-47.707c0-47.791,22.59-93.749,60.429-122.94 c27.028-20.852,60.712-32.335,94.848-32.335h256.203v291.843h-24.479h-11.052V162.548c0-7.852-6.365-14.216-14.216-14.216H280.067 c-7.852,0-14.216,6.365-14.216,14.216v212.743h-41.285c-8.648-22.735-30.656-38.938-56.389-38.938s-47.739,16.204-56.389,38.938 H14.216C6.365,375.291,0,381.656,0,389.507s6.365,14.216,14.216,14.216h94.072c3.507,29.944,29.018,53.26,59.889,53.26 s56.382-23.316,59.889-53.26h52.002h110.099h25.268h38.695h43.655c7.852,0,14.216-6.365,14.216-14.216 S505.635,375.293,497.784,375.293z M168.176,428.552c-17.58,0-31.883-14.303-31.883-31.883s14.303-31.883,31.883-31.883 s31.883,14.303,31.883,31.883S185.756,428.552,168.176,428.552z M375.949,375.293h-81.666V176.764h81.666V375.293z"/> </g> </g>
</svg>